<?xml version="1.0" encoding="UTF-8"?>
<svg id="Layer_1" data-name="Layer 1" xmlns="http://www.w3.org/2000/svg" viewBox="0 0 900.38 439.42">
  <g>
    <g>
      <polygon points="82.06 91.42 82.06 197.65 94.94 197.65 94.94 149.84 142.9 149.84 142.9 137.77 94.94 137.77 94.94 103.49 156.42 103.49 156.42 91.42 82.06 91.42"/>
      <path d="M264.13,156.12h38.79l-19.48-52.31-19.31,52.31ZM332.53,197.65h-13.68l-11.27-29.45h-48.12l-11.27,29.45h-13.52l41.36-106.23h15.29l41.2,106.23Z"/>
      <path d="M372.97,156.12h38.79l-19.48-52.31-19.31,52.31ZM441.37,197.65h-13.68l-11.27-29.45h-48.12l-11.27,29.45h-13.52l41.36-106.23h15.29l41.2,106.23Z"/>
      <path d="M490.26,185.58c12.12,0,21.59-3.62,28.41-10.86,6.81-7.24,10.22-17.3,10.22-30.18s-3.41-22.94-10.22-30.18c-6.82-7.24-16.28-10.86-28.41-10.86h-22.69v82.09h22.69ZM488.97,91.42c16.63,0,29.69,4.59,39.19,13.76,9.5,9.17,14.24,22.29,14.24,39.35s-4.75,30.18-14.24,39.35c-9.5,9.17-22.56,13.76-39.19,13.76h-34.28v-106.23h34.28Z"/>
      <path d="M188.67,117v9.86h-24.16v10.28h24.66v-9.86h22.05c-.57,7.85-1.26,17.51-1.26,18.38v3.08l-29.29,5.77c-7.19,1.4-12.79,4.05-16.82,7.97-4.02,3.92-6.04,8.88-6.04,14.89,0,4.83,1.21,8.88,3.62,12.15,2.42,3.27,5.66,5.71,9.74,7.32,4.08,1.61,8.47,2.42,13.2,2.42,3.75,0,7.56-.62,11.43-1.85,3.86-1.23,7.35-3.16,10.46-5.79,1.5-1.26,3.85-4.34,3.85-4.34,0,0,.21-.02.58-.07l1.27,10.25h10.09l.13-80.46h-33.52ZM209.96,167.87c0,3.44-.64,6.41-1.93,8.93-1.29,2.52-3.06,4.62-5.31,6.28-2.25,1.67-4.8,2.9-7.65,3.7-2.84.8-5.82,1.21-8.93,1.21-4.83,0-8.56-1.04-11.19-3.14-2.63-2.09-3.94-4.8-3.94-8.13s1.29-6.12,3.86-8.05c2.57-1.93,6.49-3.43,11.75-4.51l23.34-4.78v8.48Z"/>
    </g>
    <g>
      <path d="M640.61,115.83h-21.09v39.66c0,10.37-3.3,26.9-18.56,26.9-13.53,0-13.69-13.38-13.69-23.29v-43.27h-21.07v51.13c0,18.26,8.33,31.8,27.53,31.8,11.01,0,20.14-5.04,26.58-12.91h.32v11.01h19.98v-81.04Z"/>
      <path d="M670.37,156.11c0-10.85,3.77-25.8,17.45-25.8s18.89,14.48,18.89,25.8-4.57,26.28-18.57,26.28-17.77-15.11-17.77-26.28M707.49,196.87h20.46l-.07-114.79h-21.09l.07,43.2h-.31c-6.3-7.7-13.69-11.32-24.23-11.32-24.86,0-33.98,19.82-33.98,42.16s9.13,42.65,33.98,42.65c9.91,0,18.57-3.15,24.85-11.03h.31v9.13Z"/>
      <path d="M737.73,229.9h21.07v-42.32h.32c7.4,8.97,14.79,11.18,23.76,11.18,25.33,0,34.45-20.46,34.45-42.65s-9.12-42.16-33.98-42.16c-12.43,0-20.45,5.51-25.17,13.37h-.31v-11.49h-20.14v114.07ZM777.84,130.31c13.7,0,17.46,14.95,17.46,25.8s-3.93,26.28-17.76,26.28-18.58-14.79-18.58-26.28,5.35-25.8,18.88-25.8"/>
    </g>
  </g>
  <g>
    <path d="M116.64,247.47c16.64,0,29.71,4.59,39.2,13.77,9.5,9.18,14.25,22.3,14.25,39.37s-4.75,30.19-14.25,39.36c-9.5,9.18-22.57,13.77-39.2,13.77h-34.29v-106.26h34.29ZM117.93,341.65c12.13,0,21.6-3.62,28.42-10.87,6.81-7.25,10.22-17.31,10.22-30.19s-3.41-22.94-10.22-30.19c-6.82-7.25-16.29-10.87-28.42-10.87h-22.7v82.11h22.7Z"/>
    <path d="M196.66,257.77c-2.9,0-5.23-.89-7-2.66-1.77-1.77-2.66-4.11-2.66-7s.89-5.23,2.66-7c1.77-1.77,4.11-2.66,7-2.66s5.23.88,7,2.66c1.77,1.77,2.66,4.11,2.66,7s-.89,5.23-2.66,7-4.11,2.66-7,2.66ZM203.1,273.23v80.5h-12.88v-80.5h12.88Z"/>
    <path d="M257.03,355.34c-7.84,0-15.05-1.66-21.65-4.99-6.6-3.33-11.67-8.05-15.21-14.17l10.95-7.89c2.36,4.94,5.82,8.8,10.38,11.59,4.56,2.79,10.06,4.19,16.5,4.19,5.69,0,10.14-1.1,13.36-3.3,3.22-2.2,4.83-5.07,4.83-8.61,0-2.25-.72-4.32-2.17-6.2-1.45-1.88-4.21-3.25-8.29-4.11l-19.32-4.03c-7.84-1.61-13.44-4.29-16.82-8.05-3.38-3.76-5.07-8.42-5.07-14.01,0-4.4,1.26-8.43,3.78-12.08,2.52-3.65,6.12-6.57,10.79-8.77,4.67-2.2,10.17-3.3,16.5-3.3,7.94,0,14.65,1.56,20.12,4.67,5.47,3.11,9.55,7.51,12.24,13.2l-10.79,7.08c-1.83-4.72-4.78-8.18-8.86-10.38-4.08-2.2-8.32-3.3-12.72-3.3-3.86,0-7.16.54-9.9,1.61-2.74,1.07-4.83,2.55-6.28,4.43-1.45,1.88-2.17,4-2.17,6.36s.8,4.54,2.42,6.52c1.61,1.99,4.61,3.41,9.02,4.27l20.12,4.19c7.51,1.5,12.77,3.97,15.78,7.4,3,3.44,4.51,7.62,4.51,12.56s-1.34,9.47-4.03,13.28c-2.68,3.81-6.44,6.74-11.27,8.77-4.83,2.04-10.41,3.06-16.74,3.06Z"/>
    <path d="M341.55,355.34c-7.62,0-14.41-1.66-20.37-4.99-5.96-3.33-10.6-8.13-13.93-14.41-3.33-6.28-4.99-13.77-4.99-22.46s1.66-16.18,4.99-22.46c3.33-6.28,7.89-11.08,13.68-14.41,5.8-3.33,12.4-4.99,19.8-4.99s13.93,1.61,19.24,4.83c5.31,3.22,9.36,7.59,12.16,13.12,2.79,5.53,4.19,11.73,4.19,18.6,0,1.83-.06,3.49-.16,4.99-.11,1.51-.27,2.85-.48,4.03h-65.04v-11.43h59.41l-6.6,1.29c0-7.73-2.12-13.69-6.36-17.87-4.24-4.19-9.8-6.28-16.66-6.28-5.26,0-9.8,1.21-13.6,3.62-3.81,2.41-6.76,5.9-8.86,10.46-2.09,4.56-3.14,10.06-3.14,16.5s1.07,11.81,3.22,16.42c2.15,4.62,5.18,8.13,9.1,10.55,3.92,2.41,8.61,3.62,14.09,3.62,5.9,0,10.71-1.13,14.41-3.38,3.7-2.25,6.68-5.31,8.93-9.18l10.14,5.96c-2.04,3.65-4.64,6.82-7.81,9.5-3.17,2.68-6.87,4.75-11.11,6.2-4.24,1.45-8.99,2.17-14.25,2.17Z"/>
    <path d="M395.81,353.73v-80.5h11.27l1.13,18.03-2.09-1.77c1.71-4.29,4.02-7.75,6.92-10.38,2.9-2.63,6.25-4.53,10.06-5.71,3.81-1.18,7.75-1.77,11.83-1.77,5.8,0,11.05,1.1,15.78,3.3,4.72,2.2,8.5,5.55,11.35,10.06,2.84,4.51,4.27,10.25,4.27,17.23v51.52h-12.88v-47.01c0-8.91-1.91-15.11-5.72-18.6-3.81-3.49-8.51-5.23-14.09-5.23-3.86,0-7.73.91-11.59,2.74-3.86,1.83-7.06,4.78-9.58,8.85-2.52,4.08-3.78,9.55-3.78,16.42v42.83h-12.88ZM461.01,238.29c-.32,4.72-1.21,8.69-2.66,11.91s-3.44,5.63-5.96,7.25c-2.52,1.61-5.66,2.42-9.42,2.42-3.01,0-5.55-.56-7.65-1.69-2.09-1.13-3.89-2.39-5.39-3.78-1.5-1.39-2.98-2.66-4.43-3.78s-3.03-1.69-4.75-1.69c-2.36,0-4.13.99-5.31,2.98-1.18,1.99-2.04,4.7-2.58,8.13h-10.14c.54-7.08,2.28-12.45,5.23-16.1,2.95-3.65,7.27-5.47,12.96-5.47,2.9,0,5.39.56,7.49,1.69,2.09,1.13,3.92,2.39,5.47,3.78,1.55,1.4,3.03,2.66,4.43,3.78,1.39,1.13,2.9,1.69,4.51,1.69,2.47,0,4.29-.99,5.47-2.98,1.18-1.98,2.04-4.69,2.58-8.13h10.14Z"/>
    <path d="M523.8,271.62c7.62,0,14.35,1.67,20.21,4.99,5.85,3.33,10.44,8.13,13.77,14.41,3.33,6.28,4.99,13.77,4.99,22.46s-1.67,16.18-4.99,22.46c-3.33,6.28-7.92,11.08-13.77,14.41-5.85,3.33-12.59,4.99-20.21,4.99s-14.22-1.66-20.12-4.99c-5.9-3.33-10.52-8.13-13.85-14.41-3.33-6.28-4.99-13.77-4.99-22.46s1.66-16.18,4.99-22.46c3.33-6.28,7.94-11.08,13.85-14.41,5.9-3.33,12.61-4.99,20.12-4.99ZM523.8,282.73c-5.47,0-10.14,1.23-14.01,3.7-3.86,2.47-6.84,5.98-8.94,10.54-2.09,4.56-3.14,10.06-3.14,16.5s1.05,11.81,3.14,16.42c2.09,4.62,5.07,8.16,8.94,10.63,3.86,2.47,8.53,3.7,14.01,3.7s10.14-1.23,14.01-3.7c3.86-2.47,6.84-6.01,8.94-10.63,2.09-4.61,3.14-10.09,3.14-16.42s-1.05-11.94-3.14-16.5c-2.09-4.56-5.07-8.08-8.94-10.54-3.86-2.47-8.53-3.7-14.01-3.7Z"/>
  </g>
</svg>